<svg data-v-0dd9719b="" version="1.0" xmlns="http://www.w3.org/2000/svg" xmlns:xlink="http://www.w3.org/1999/xlink" width="100%" height="100%" viewBox="0 0 340.000000 250.000000" preserveAspectRatio="xMidYMid meet" color-interpolation-filters="sRGB" style="margin: auto;"> <rect data-v-0dd9719b="" x="0" y="0" width="100%" height="100%" fill="#fff" fill-opacity="1" class="background"></rect> <rect data-v-0dd9719b="" x="0" y="0" width="100%" height="100%" fill="url(#watermark)" fill-opacity="1" class="watermarklayer"></rect> <g data-v-0dd9719b="" fill="#f7a900" class="icon-text-wrapper icon-svg-group iconsvg" transform="translate(47.466819763183594,101.23705863952637)"><g class="iconsvg-imagesvg" transform="translate(0,0)"><g><rect fill="#f7a900" fill-opacity="0" stroke-width="2" x="0" y="0" width="60" height="47.52588180313196" class="image-rect"></rect> <svg x="0" y="0" width="60" height="47.52588180313196" filtersec="colorsb1595527674" class="image-svg-svg primary" style="overflow: visible;"><svg xmlns="http://www.w3.org/2000/svg" viewBox="0 0 1048.199951171875 830.280029296875"><g><g fill-rule="evenodd"><path fill="#ffcb00" d="M671.82 417.72L521.26 577.59l172.34 3.01 87.59-79.72 252.83 329.4-775.51-13.54L0 812.23l376.38-399.67 150.55-159.87-172.33-3-87.59 79.71L14.18 0l775.51 13.54 258.51 4.51-376.38 399.67z"></path><path fill="#f7a900" d="M1034.02 830.28L521.26 577.59 1048.2 18.05 347.51 655.8l686.51 174.48zM14.18 0l512.75 252.69L0 812.23l700.69-637.75L14.18 0z"></path></g></g></svg></svg> <!----></g></g> <g transform="translate(67,0.10576438903808594)"><g data-gra="path-name" fill-rule="" class="tp-name iconsvg-namesvg" transform="translate(0,0)"><g transform="scale(1)"><g><path d="M2.18 1.48L2.18 1.48Q2.43 1.97 2.51 2.07 2.6 2.18 2.83 2.23 3.06 2.29 3.41 2.14L3.41 2.14Q4.92 1.9 6.84 1.86 8.75 1.83 19.62 1.79L19.62 1.79Q33.19 1.76 33.75 1.62L33.75 1.62Q33.93 1.51 33.96 1.34L33.96 1.34Q34.14 0.74 31.43-1.3L31.43-1.3Q30.48-2 30.22-1.95 29.95-1.9 29.14-0.81L29.14-0.81Q29.04-0.67 28.83-0.39L28.83-0.39Q28.16 0.53 27.63 0.67 27.11 0.81 24.57 0.81L24.57 0.81Q24.08 0.81 23.84 0.81L23.84 0.81Q23.63 0.81 23.24 0.81L23.24 0.81Q20.43 0.81 19.97 0.6 19.51 0.39 19.51-0.91L19.51-0.91Q19.51-1.16 19.51-1.3L19.51-1.3Q19.51-2.71 19.55-2.81L19.55-2.81Q19.76-3.3 21.45-3.34L21.45-3.34Q21.66-3.34 25.73-3.38L25.73-3.38Q31.36-3.41 31.64-3.62L31.64-3.62Q31.75-3.69 31.75-3.94L31.75-3.94Q31.75-4.5 29.04-6.4L29.04-6.4Q28.55-6.75 28.58-7 28.62-7.24 29.18-7.59L29.18-7.59Q29.5-7.77 29.55-7.96 29.6-8.16 29.57-9L29.57-9Q29.36-13.96 29.48-15.49 29.6-17.02 30.23-17.37L30.23-17.37Q30.83-17.72 30.71-18.04 30.59-18.35 29.46-19.23L29.46-19.23Q28.05-20.36 27.63-20.39 27.21-20.43 26.44-19.44L26.44-19.44Q25.95-18.84 25.51-18.74 25.07-18.63 22.78-18.63L22.78-18.63Q20.14-18.63 19.79-18.88L19.79-18.88Q19.51-19.23 19.51-20.32L19.51-20.32Q19.51-21.45 19.62-21.59L19.62-21.59Q19.9-22.01 22.25-22.04L22.25-22.04Q22.39-22.04 26.58-22.04L26.58-22.04Q31.57-22.04 32.41-22.1 33.26-22.15 33.36-22.43L33.36-22.43Q33.5-22.71 32.73-23.48 31.96-24.26 30.62-25.17L30.62-25.17Q30.02-25.52 29.81-25.45 29.6-25.38 28.93-24.5L28.93-24.5Q28.83-24.36 28.62-24.08L28.62-24.08Q28.05-23.27 27.56-23.15 27.07-23.03 24.79-23.03L24.79-23.03Q24.15-23.03 23.8-23.03L23.8-23.03Q23.55-23.03 23.1-23.03L23.1-23.03Q20.39-23.03 19.95-23.2 19.51-23.38 19.51-24.43L19.51-24.43Q19.51-24.61 19.51-24.71L19.51-24.71Q19.51-25.98 19.86-26.23 20.21-26.47 22.36-26.72L22.36-26.72Q22.92-26.79 25.88-27.14L25.88-27.14Q27.74-27.39 28.65-27.21L28.65-27.21Q29.88-26.89 29.88-27.32L29.88-27.32Q29.88-27.39 28.55-28.83 27.21-30.27 27.07-30.34 26.93-30.41 26.37-30.2L26.37-30.2Q22.96-29.18 17.3-28.13 11.64-27.07 6.64-26.54L6.64-26.54Q5.17-26.4 4.96-26.33 4.75-26.26 4.75-26.05L4.75-26.05Q4.75-25.49 12.16-25.91L12.16-25.91Q15.43-26.09 15.82-25.91L15.82-25.91Q16.14-25.77 16.17-24.89L16.17-24.89Q16.17-24.82 16.17-24.79L16.17-24.79Q16.21-23.45 15.79-23.2L15.79-23.2Q15.43-22.99 10.34-23.01 5.24-23.03 2.99-23.2L2.99-23.2Q2.5-23.27 2.48-23.17 2.46-23.06 2.81-22.32L2.81-22.32Q3.13-21.69 3.25-21.6 3.38-21.52 4.08-21.62L4.08-21.62Q6.54-21.97 11.07-22.01L11.07-22.01Q11.43-22.01 12.06-22.01L12.06-22.01Q15.43-22.04 15.86-21.8L15.86-21.8Q16.17-21.62 16.21-20.81L16.21-20.81Q16.21-20.67 16.21-20.6L16.21-20.6Q16.28-19.13 15.89-18.9 15.5-18.67 12.9-18.63L12.9-18.63Q10.41-18.63 9.95-18.72 9.49-18.81 7.77-19.55L7.77-19.55Q6.15-20.29 6.08-20.07L6.08-20.07Q6.05-20 6.08-19.83L6.08-19.83Q6.29-18.35 6.38-14.8 6.47-11.25 6.33-8.86L6.33-8.86Q6.26-7.28 6.28-6.94 6.29-6.61 6.43-6.47L6.43-6.47Q6.82-6.08 8.1-6.47 9.39-6.86 9.7-7.52L9.7-7.52Q9.98-8.16 12.78-8.23 15.57-8.3 16.03-7.66L16.03-7.66Q16.31-7.28 16.22-6.03 16.14-4.78 15.79-4.54L15.79-4.54Q15.57-4.39 11.25-4.39 6.93-4.39 5.48-4.54L5.48-4.54Q4.92-4.64 4.71-4.57 4.5-4.5 4.54-4.36 4.57-4.22 4.85-3.69L4.85-3.69Q5.2-3.02 5.34-2.95 5.48-2.88 6.15-2.99L6.15-2.99Q8.12-3.3 12.13-3.34L12.13-3.34Q12.34-3.34 12.69-3.34L12.69-3.34Q15.43-3.41 15.82-3.13L15.82-3.13Q16.17-2.92 16.17-1.76L16.17-1.76Q16.17-1.72 16.17-1.65L16.17-1.65Q16.17-1.41 16.17-1.3L16.17-1.3Q16.17-0.14 16.08 0.18 16 0.49 15.64 0.67L15.64 0.67Q15.33 0.84 9.88 0.79 4.43 0.74 2.57 0.56L2.57 0.56Q1.86 0.49 1.83 0.6 1.79 0.7 2.18 1.48ZM26.33-4.57L26.33-4.57Q26.05-4.39 23.06-4.39L23.06-4.39Q20.21-4.39 19.86-4.61L19.86-4.61Q19.51-4.78 19.51-5.77L19.51-5.77Q19.51-6.19 19.51-6.22L19.51-6.22Q19.51-6.29 19.51-6.43L19.51-6.43Q19.51-7.7 19.88-7.91 20.25-8.12 22.46-8.12L22.46-8.12Q22.71-8.12 22.82-8.12L22.82-8.12Q25.1-8.12 25.61-8 26.12-7.88 26.12-7.28L26.12-7.28Q26.12-7.03 26.26-6.94 26.4-6.86 26.86-6.86L26.86-6.86Q27.81-6.86 27.81-6.54L27.81-6.54Q27.81-6.26 27.25-5.5 26.68-4.75 26.33-4.57ZM15.79-9.32L15.79-9.32Q15.54-9.14 12.97-9.12 10.41-9.11 10.16-9.28L10.16-9.28Q9.67-9.56 9.7-11.07 9.74-12.59 10.23-12.83L10.23-12.83Q10.51-13.01 12.92-13.01 15.33-13.01 15.61-12.83L15.61-12.83Q16.17-12.59 16.24-11.13 16.31-9.67 15.79-9.32ZM25.7-9.25L25.7-9.25Q25.45-9.11 22.8-9.12 20.14-9.14 19.93-9.28L19.93-9.28Q19.44-9.56 19.48-11.07 19.51-12.59 20-12.83L20-12.83Q20.29-13.01 22.82-13.01 25.35-13.01 25.63-12.83L25.63-12.83Q26.16-12.59 26.17-11.07 26.19-9.56 25.7-9.25ZM15.79-14.13L15.79-14.13Q15.54-13.96 12.97-13.94 10.41-13.92 10.16-14.1L10.16-14.1Q9.7-14.38 9.7-15.84 9.7-17.3 10.16-17.54L10.16-17.54Q10.44-17.68 13.08-17.65 15.71-17.61 15.89-17.44L15.89-17.44Q16.28-17.09 16.22-15.73 16.17-14.38 15.79-14.13ZM25.7-14.06L25.7-14.06Q25.45-13.92 22.8-13.94 20.14-13.96 19.93-14.1L19.93-14.1Q19.48-14.34 19.48-15.8 19.48-17.26 19.93-17.54L19.93-17.54Q20.18-17.68 22.82-17.68 25.45-17.68 25.7-17.54L25.7-17.54Q26.16-17.26 26.16-15.8 26.16-14.34 25.7-14.06ZM37.9 2.99L37.9 2.99Q38.11 3.23 39.13 2.21L39.13 2.21Q41.55-0.18 42.82-3.23 44.09-6.29 44.51-10.83L44.51-10.83Q44.58-11.36 44.65-17.44L44.65-17.44Q44.68-23.2 44.82-23.38L44.82-23.38Q44.86-23.41 44.89-23.48L44.89-23.48Q45.04-23.73 46.3-23.78 47.57-23.84 55.05-23.84L55.05-23.84Q56.64-23.84 57.55-23.84L57.55-23.84Q58.57-23.84 60.36-23.84L60.36-23.84Q67.68-23.84 68.91-23.87 70.14-23.91 70.21-24.15L70.21-24.15Q70.21-24.19 70.21-24.22L70.21-24.22Q70.35-24.64 68.73-26.09 67.11-27.53 66.73-27.32L66.73-27.32Q66.48-27.14 65.46-25.63L65.46-25.63Q65.04-25 64.6-24.93 64.16-24.86 61.31-24.86L61.31-24.86Q58.15-24.89 57.9-25.07L57.9-25.07Q57.73-25.17 58.08-25.91L58.08-25.91Q58.71-27.25 57.38-28.56 56.04-29.88 53.54-30.38L53.54-30.38Q52.17-30.62 52.17-30.38L52.17-30.38Q52.21-30.23 52.56-29.81L52.56-29.81Q53.86-28.37 54.63-26.91 55.41-25.45 55.09-25.07L55.09-25.07Q54.74-24.57 49.66-24.82 44.58-25.07 43.21-25.63L43.21-25.63Q41.24-26.47 41.2-26.23L41.2-26.23Q41.17-26.19 41.2-26.05L41.2-26.05Q41.45-24.29 41.45-17.37 41.45-10.44 41.13-7.63L41.13-7.63Q40.46-1.83 38.36 1.86L38.36 1.86Q37.83 2.92 37.9 2.99ZM43.07 2.14L43.07 2.14Q42.29 2.57 42.29 2.74L42.29 2.74Q42.29 3.06 43.56 2.57L43.56 2.57Q48.45 0.67 51.56-2.32 54.67-5.31 56.21-9.7L56.21-9.7Q56.64-10.86 56.88-11.2 57.13-11.53 57.36-11.25 57.59-10.97 57.94-9.91L57.94-9.91Q60.71-1.51 66.52 2.36L66.52 2.36Q67.39 2.88 67.39 2.57L67.39 2.57Q67.39 2.04 68.17 1.09 68.94 0.14 69.71-0.25L69.71-0.25Q70.21-0.49 70.21-0.72 70.21-0.95 69.71-1.09L69.71-1.09Q65.99-2.21 62.68-5.47 59.38-8.72 58.08-12.59L58.08-12.59Q57.76-13.57 57.87-13.75L57.87-13.75Q58.11-14.13 60.93-14.17L60.93-14.17Q61.24-14.17 63.35-14.17L63.35-14.17Q68.84-14.2 68.94-14.66L68.94-14.66Q69.01-14.98 68.08-15.87 67.15-16.77 65.88-17.58L65.88-17.58Q65.36-17.93 65.11-17.79 64.86-17.65 63.95-16.45L63.95-16.45Q63.21-15.47 62.82-15.33 62.44-15.19 60.54-15.19L60.54-15.19Q58.39-15.19 58.06-15.45 57.73-15.71 57.9-17.16L57.9-17.16Q57.9-17.26 58.08-19.13L58.08-19.13Q58.18-20.5 58.32-20.99 58.46-21.48 58.78-21.55L58.78-21.55Q58.92-21.59 59.12-21.76 59.31-21.94 59.4-22.11 59.48-22.29 59.41-22.32L59.41-22.32Q59.34-22.39 57.45-22.54 55.55-22.68 54.84-22.68L54.84-22.68Q54.53-22.68 54.46-22.32 54.39-21.97 54.42-20.07L54.42-20.07Q54.46-17.26 54.33-16.4 54.21-15.54 53.79-15.29L53.79-15.29Q53.54-15.15 50.38-15.21 47.21-15.26 45.98-15.43L45.98-15.43Q45.7-15.5 45.7-15.33 45.7-15.15 46.02-14.52L46.02-14.52Q46.37-13.75 46.51-13.75L46.51-13.75Q46.62-13.75 47.6-13.89L47.6-13.89Q49.46-14.17 51.4-14.2 53.33-14.24 53.65-13.99L53.65-13.99Q53.93-13.75 53.88-13.11 53.82-12.48 53.33-10.72L53.33-10.72Q50.84-2.21 43.07 2.14ZM99.91 2.95L99.91 2.95Q99.98 3.13 100.9 2.94 101.81 2.74 102.48 2.43L102.48 2.43Q103.71 1.9 104.06 0.49L104.06 0.49Q104.24-0.04 104.27-13.92L104.27-13.92Q104.31-27.56 104.45-28.2L104.45-28.2Q104.55-28.44 104.77-28.55L104.77-28.55Q105.57-29.04 104.06-29.57L104.06-29.57Q103.32-29.85 101.78-30.23L101.78-30.23Q100.79-30.48 100.76-30.3L100.76-30.3Q100.72-30.23 100.76-30.09L100.76-30.09Q101.07-28.02 101.16-14.87 101.25-1.72 100.97-1.23L100.97-1.23Q100.72-0.84 100.21-0.77 99.7-0.7 98.16-0.84L98.16-0.84Q96.12-0.98 96.08-0.84L96.08-0.84Q96.01-0.67 96.19-0.54 96.36-0.42 96.96-0.28L96.96-0.28Q99.46 0.35 99.81 2.43L99.81 2.43Q99.81 2.53 99.84 2.65 99.88 2.78 99.9 2.85 99.91 2.92 99.91 2.95ZM80.68 1.41L80.68 1.41Q81.95 1.51 85.85 1.41 89.75 1.3 90.7 1.13L90.7 1.13Q92.36 0.84 92.87 0.04 93.38-0.77 92.39-1.58L92.39-1.58Q91.86-2 91.74-2.76 91.62-3.52 91.58-6.93L91.58-6.93Q91.58-7.07 91.55-7.17 91.51-7.28 91.44-7.29 91.37-7.31 91.3-7.24L91.3-7.24Q91.27-7.21 90.91-5.84L90.91-5.84Q90.21-2.92 89.89-2.43L89.89-2.43Q89.4-1.65 87.86-1.58L87.86-1.58Q87.43-1.55 85.11-1.55L85.11-1.55Q84.55-1.55 83.6-1.51L83.6-1.51Q81.28-1.44 80.91-2.11 80.54-2.78 80.58-6.86L80.58-6.86Q80.58-8.51 80.58-9.53L80.58-9.53Q80.58-10.48 80.58-12.02L80.58-12.02Q80.54-16.1 80.82-16.79 81.11-17.47 82.76-17.4L82.76-17.4Q83.39-17.37 83.78-17.37L83.78-17.37Q83.99-17.37 84.41-17.37L84.41-17.37Q86.34-17.37 86.66-17.1 86.98-16.84 86.98-15.15L86.98-15.15Q86.98-14.8 86.98-14.59L86.98-14.59Q86.98-13.46 86.98-12.88 86.98-12.3 86.91-11.64 86.84-10.97 86.8-10.69 86.77-10.41 86.55-10.09 86.34-9.77 86.19-9.7 86.03-9.63 85.62-9.54 85.22-9.46 84.87-9.47 84.52-9.49 83.85-9.53L83.85-9.53Q82.72-9.56 82.69-9.46L82.69-9.46Q82.65-9.32 82.79-9.21 82.93-9.11 83.43-8.93L83.43-8.93Q84.41-8.61 84.83-8.12 85.25-7.63 85.36-6.71L85.36-6.71Q85.39-6.29 85.68-6.24 85.96-6.19 86.91-6.36L86.91-6.36Q88.73-6.71 89.33-8.37 89.93-10.02 89.93-14.73L89.93-14.73Q89.93-16.1 90.07-16.49 90.21-16.88 90.81-17.16L90.81-17.16Q91.37-17.4 91.02-17.89L91.02-17.89Q90.39-18.84 91.37-18.98L91.37-18.98Q92.6-19.16 92.72-20.58 92.85-22.01 91.76-23.52L91.76-23.52Q90.39-25.45 87.33-27L87.33-27Q85.82-27.77 85.92-28.13L85.92-28.13Q85.96-28.2 86.03-28.23L86.03-28.23Q86.34-28.41 85.92-28.69L85.92-28.69Q85.57-28.9 83.99-29.67L83.99-29.67Q81.7-30.8 81.6-30.59L81.6-30.59Q81.56-30.55 81.56-30.45L81.56-30.45Q81.56-28.27 78.98-23.34 76.39-18.42 73.83-15.64L73.83-15.64Q73.16-14.87 73.72-14.84L73.72-14.84Q74.07-14.84 75.87-16.35L75.87-16.35Q76.57-16.88 76.83-16.98 77.1-17.09 77.31-16.91L77.31-16.91Q77.45-16.77 77.48-5.55L77.48-5.55Q77.52-0.91 77.63-0.39L77.63-0.39Q77.91 0.49 78.57 0.88 79.24 1.27 80.68 1.41ZM87.4-19.37Q86.84-18.63 86.52-18.49 86.2-18.35 83.67-18.35 81.14-18.35 80.68-18.49L80.68-18.49Q79.91-18.77 79.63-19.02 79.35-19.27 79.45-19.63 79.56-20 80.12-20.67L80.12-20.67Q81.95-22.89 83.53-25.49L83.53-25.49Q84.3-26.82 84.83-26.68 85.36-26.54 86.87-24.64L86.87-24.64Q89.33-21.59 89.44-20.29L89.44-20.29Q89.47-19.62 88.63-20.07L88.63-20.07Q88.38-20.25 88.17-20.13 87.96-20 87.4-19.37L87.4-19.37ZM94.54-5.52L94.54-5.52Q94.85-5.34 95.64-5.5 96.43-5.66 97.07-6.05L97.07-6.05Q97.52-6.33 97.58-6.57 97.63-6.82 97.56-8.05L97.56-8.05Q97.35-12.16 97.35-19.55L97.35-19.55Q97.38-22.92 97.44-23.41 97.49-23.91 97.95-24.26L97.95-24.26Q98.47-24.75 97.14-25.24L97.14-25.24Q96.43-25.52 94.99-25.91L94.99-25.91Q94.18-26.09 94.11-26 94.04-25.91 94.15-25.03L94.15-25.03Q94.39-22.75 94.43-17.33L94.43-17.33Q94.46-10.76 94.25-7.21L94.25-7.21Q94.18-6.22 94.24-5.94 94.29-5.66 94.54-5.52ZM118.09 2.46Q118.16 2.81 118.69 2.95 119.21 3.09 120.15 2.79 121.08 2.5 121.54 2.07L121.54 2.07Q121.71 1.9 121.75 1.79 121.78 1.69 121.71 1.16L121.71 1.16Q121.54-1.86 121.5-7.49 121.46-13.11 121.64-13.43L121.64-13.43Q122.03-13.99 123.15-12.27L123.15-12.27Q124.14-10.83 124.77-8.96L124.77-8.96Q125.19-7.66 126.09-7.42 126.98-7.17 127.51-8.23L127.51-8.23Q128.25-9.67 126.91-11.53 125.58-13.39 122.91-14.7L122.91-14.7Q121.96-15.15 121.75-15.4 121.54-15.64 121.5-16.31L121.5-16.31Q121.5-16.35 121.5-16.38L121.5-16.38Q121.39-17.44 121.71-17.65L121.71-17.65Q122.1-17.89 125.09-17.93L125.09-17.93 125.33-17.93Q128-17.96 128.48-18.02 128.95-18.07 129.09-18.32L129.09-18.32Q129.3-18.81 127.27-20.67L127.27-20.67Q126.28-21.59 125.98-21.55 125.68-21.52 124.91-20.36L124.91-20.36Q124.21-19.34 123.96-19.16 123.71-18.98 122.84-18.98L122.84-18.98Q121.78-18.98 121.61-19.42 121.43-19.86 121.46-22.57L121.46-22.57Q121.5-24.86 121.62-25.28 121.75-25.7 122.48-25.88L122.48-25.88Q126.07-26.82 127.09-26.65L127.09-26.65Q128.07-26.47 128.11-26.72L128.11-26.72Q128.18-26.96 127.16-27.95L127.16-27.95Q126.91-28.16 126.53-28.55L126.53-28.55Q125.09-29.99 124.66-30.09L124.66-30.09Q124.31-30.16 123.36-29.67L123.36-29.67Q123.08-29.5 122.91-29.43L122.91-29.43Q117.32-26.61 111.62-25.07L111.62-25.07Q111.16-24.96 110.92-24.87 110.67-24.79 110.57-24.71 110.46-24.64 110.46-24.59 110.46-24.54 110.5-24.43L110.5-24.43Q110.57-24.15 115.84-24.79L115.84-24.79Q117.81-25.03 118.09-24.71 118.37-24.4 118.37-21.94L118.37-21.94Q118.37-21.69 118.37-21.3L118.37-21.3Q118.37-19.51 118.05-19.23 117.74-18.95 115.7-18.98L115.7-18.98Q115.24-18.98 114.96-18.98L114.96-18.98Q112.78-18.98 111.3-19.09L111.3-19.09Q110.46-19.2 110.39-19.09L110.39-19.09Q110.36-19.05 110.65-18.39 110.95-17.72 111.09-17.54L111.09-17.54Q111.16-17.47 112.08-17.65L112.08-17.65Q113.84-17.93 115.26-17.95 116.68-17.96 116.93-17.72L116.93-17.72Q117.67-16.98 115.24-12.06 112.82-7.14 110.21-4.08L110.21-4.08Q109.69-3.41 109.63-3.32 109.58-3.23 109.69-3.09L109.69-3.09Q109.83-2.92 110.04-3.01 110.25-3.09 110.88-3.59L110.88-3.59Q114.05-6.12 116.75-9.67L116.75-9.67Q117.77-11.04 118.05-10.93L118.05-10.93Q118.13-10.86 118.23-10.69L118.23-10.69Q118.37-10.3 118.34-6.87 118.3-3.45 118.13 0.28L118.13 0.28Q118.02 2.11 118.09 2.46ZM135.98 2.74L135.98 2.74Q136.37 3.13 138.01 2.44 139.64 1.76 139.99 1.02L139.99 1.02Q140.03 0.95 140.06 0.88L140.06 0.88Q140.34 0.35 140.4-1.49 140.45-3.34 140.48-13.75L140.48-13.75Q140.52-26.89 140.66-27.56L140.66-27.56Q140.77-27.81 141.01-27.98L141.01-27.98Q141.57-28.44 140.41-28.9L140.41-28.9Q139.75-29.14 138.09-29.6L138.09-29.6Q137.11-29.85 136.99-29.78 136.86-29.71 136.97-28.79L136.97-28.79Q137.18-26.86 137.23-24.61 137.29-22.36 137.29-13.54L137.29-13.54Q137.29-1.83 137.11-1.51L137.11-1.51Q136.79-0.98 135.44-0.98 134.09-0.98 133.1-1.16 132.12-1.34 131.91-1.02L131.91-1.02Q131.91-0.77 132.5-0.63L132.5-0.63Q134.05-0.32 134.96 0.51 135.88 1.34 135.88 2.46L135.88 2.46Q135.88 2.64 135.98 2.74ZM130.18-4.68L130.18-4.68Q130.71-4.57 131.63-4.89 132.54-5.2 132.96-5.63L132.96-5.63Q133.14-5.84 133.07-7.31L133.07-7.31Q132.86-11.85 132.86-19.72L132.86-19.72Q132.89-24.01 132.94-24.59 133-25.17 133.45-25.59L133.45-25.59Q133.98-26.05 133.07-26.44L133.07-26.44Q132.4-26.75 130.54-27.25L130.54-27.25Q129.66-27.49 129.55-27.4 129.45-27.32 129.55-26.44L129.55-26.44Q129.87-23.48 129.87-16.31L129.87-16.31Q129.87-10.09 129.73-8.33L129.73-8.33Q129.59-5.77 129.64-5.27 129.69-4.78 130.18-4.68ZM149.63 2.92L149.63 2.92Q149.77 3.06 151.07 2.78L151.07 2.78Q152.23 2.5 152.77 1.93 153.32 1.37 153.6 0.25L153.6 0.25Q153.63 0.14 153.7-6.57L153.7-6.57Q153.74-12.76 153.88-13.36L153.88-13.36Q153.98-13.78 154.51-14.13L154.51-14.13Q154.65-14.24 154.76-14.31L154.76-14.31Q157.89-16.52 157.89-16.73L157.89-16.73Q157.89-16.98 157.43-16.84L157.43-16.84Q157.15-16.73 156.27-16.42L156.27-16.42Q154.34-15.61 154.04-15.82 153.74-16.03 153.7-18.18L153.7-18.18Q153.7-20.39 153.95-20.67 154.2-20.95 156.16-20.95L156.16-20.95Q158.52-20.95 158.77-21.3 159.01-21.66 157.61-23.1L157.61-23.1Q156.52-24.22 156.2-24.31 155.88-24.4 155.39-23.66L155.39-23.66Q154.9-22.82 154.63-22.55 154.37-22.29 154.13-22.36L154.13-22.36Q153.63-22.5 153.69-25.37 153.74-28.23 154.23-28.55L154.23-28.55Q155.11-29.07 153.07-29.74L153.07-29.74Q152.3-29.99 151-30.3L151-30.3Q150.36-30.48 150.28-30.39 150.19-30.3 150.29-29.43L150.29-29.43Q150.5-27.39 150.56-25.08 150.61-22.78 150.43-22.43L150.43-22.43Q150.22-22.04 149.48-21.99 148.75-21.94 146.74-22.11L146.74-22.11Q145.93-22.18 145.86-22.11 145.79-22.04 146.11-21.38L146.11-21.38Q146.46-20.67 146.58-20.6 146.71-20.53 147.34-20.71L147.34-20.71Q149.59-21.3 150.1-20.81 150.61-20.32 150.61-17.65L150.61-17.65Q150.61-17.4 150.61-16.91L150.61-16.91Q150.61-14.91 150.33-14.45L150.33-14.45Q149.98-13.99 148.22-13.39L148.22-13.39Q148.11-13.36 147.9-13.29L147.9-13.29Q147.45-13.15 147.16-13.04L147.16-13.04Q145.72-12.59 145.55-12.41L145.55-12.41Q145.51-12.34 146.21-10.49 146.92-8.65 146.99-8.58 147.06-8.51 147.32-8.74 147.59-8.96 147.59-9.11L147.59-9.11Q147.59-9.32 148.62-10.04 149.66-10.76 149.98-10.76L149.98-10.76Q150.4-10.76 150.47-10.55L150.47-10.55Q150.57-10.16 150.61-6.15L150.61-6.15Q150.64-2.07 150.43-1.48L150.43-1.48Q150.22-0.77 149.24-0.77L149.24-0.77Q149.1-0.77 147.66-0.88L147.66-0.88Q146.57-0.95 146.46-0.84L146.46-0.84Q146.18-0.56 146.92-0.35L146.92-0.35Q146.99-0.32 147.02-0.32L147.02-0.32Q149.27 0.25 149.52 2.43L149.52 2.43Q149.59 2.88 149.63 2.92ZM174.52 2.6L174.52 2.6Q175.08 2.81 175.25 2.85 175.43 2.88 175.52 2.85 175.61 2.81 175.71 2.57L175.71 2.57Q176.03 1.72 176.75 1.02 177.47 0.32 178.31 0.04L178.31 0.04Q178.42 0 178.47-0.12 178.52-0.25 178.45-0.28L178.45-0.28Q178.42-0.32 177.4-0.6L177.4-0.6Q174.27-1.41 171.46-2.81L171.46-2.81Q169.77-3.66 169.65-4.1 169.52-4.54 170.68-5.87L170.68-5.87Q172.23-7.7 173.74-10.62L173.74-10.62Q174.38-11.81 174.64-12.15 174.9-12.48 175.39-12.62L175.39-12.62Q175.75-12.73 175.89-12.83 176.03-12.94 175.97-13.15 175.92-13.36 175.69-13.64 175.46-13.92 174.94-14.45L174.94-14.45Q173.6-15.79 173.21-15.87 172.83-15.96 171.95-15.12 171.07-14.27 170.82-14.17L170.82-14.17Q170.54-14.1 165.2-14.13 159.86-14.17 158.94-14.27L158.94-14.27Q158.06-14.34 158.03-14.27L158.03-14.27Q157.96-14.24 158.36-13.45 158.77-12.66 158.84-12.66L158.84-12.66 158.91-12.69Q158.98-12.73 159.06-12.76 159.15-12.8 159.22-12.83L159.22-12.83Q161.16-13.64 161.61-11.85L161.61-11.85Q162.6-8.19 164.43-5.41L164.43-5.41Q165.06-4.43 165.04-4.04 165.02-3.66 164.36-3.02L164.36-3.02Q162.81-1.62 160.21-0.12 157.61 1.37 155.32 2.21L155.32 2.21Q154.9 2.39 154.78 2.5 154.65 2.6 154.69 2.74L154.69 2.74Q154.76 2.99 156.41 2.57L156.41 2.57Q161.47 1.23 165.3-1.16L165.3-1.16Q166.5-1.93 166.83-1.93 167.17-1.93 168.05-1.23L168.05-1.23Q170.79 1.09 174.52 2.6ZM167.17-6.22L167.17-6.22Q166.78-6.05 166.32-6.38 165.87-6.71 164.92-7.84L164.92-7.84Q163.86-9.11 162.97-10.69 162.07-12.27 162.21-12.62L162.21-12.62Q162.35-12.94 162.77-13.01L162.77-13.01Q163.3-13.08 166.32-13.11L166.32-13.11Q169.63-13.11 170.19-13.01 170.75-12.9 170.72-12.27L170.72-12.27Q170.61-11.36 169.19-8.95 167.77-6.54 167.17-6.22ZM157.75-14.98L157.75-14.98Q158.1-14.66 159.96-16.05 161.82-17.44 162.6-18.63L162.6-18.63Q164.32-21.16 164.46-25.14L164.46-25.14Q164.5-25.95 164.48-26.12 164.46-26.3 164.6-26.7 164.74-27.11 164.76-27.12 164.78-27.14 165.2-27.26 165.62-27.39 165.85-27.37 166.08-27.35 166.89-27.35L166.89-27.35Q167.1-27.35 167.48-27.35L167.48-27.35Q168.29-27.39 168.57-27.35 168.86-27.32 169.08-26.89 169.31-26.47 169.33-25.82 169.35-25.17 169.35-23.59L169.35-23.59Q169.35-22.89 169.35-22.5L169.35-22.5Q169.38-18.81 169.47-18.18 169.56-17.54 170.19-17.23L170.19-17.23Q170.93-16.88 173.29-16.91 175.64-16.95 176.84-17.3L176.84-17.3Q177.86-17.58 178.17-18.35 178.49-19.13 177.82-19.72L177.82-19.72Q177.47-20.04 177.36-20.44 177.26-20.85 177.22-22.32L177.22-22.32Q177.15-24.19 177.12-24.22L177.12-24.22Q176.98-24.36 176.8-23.91L176.8-23.91Q176.66-23.52 176.41-22.54L176.41-22.54Q175.96-20.57 175.54-20.14 175.11-19.72 173.74-19.79L173.74-19.79Q172.65-19.83 172.48-20.27 172.3-20.71 172.3-23.48L172.3-23.48Q172.3-25.91 172.37-26.42 172.44-26.93 172.79-27.14L172.79-27.14Q173.46-27.49 173.29-27.84L173.29-27.84Q173.07-28.27 172.05-29.21 171.04-30.16 170.72-30.27L170.72-30.27Q170.44-30.38 169.77-29.53L169.77-29.53Q169.1-28.58 168.75-28.44 168.4-28.3 166.82-28.3L166.82-28.3Q165.38-28.3 164.97-28.39 164.57-28.48 162.95-29.21L162.95-29.21Q161.65-29.78 161.47-29.76 161.3-29.74 161.37-28.93L161.37-28.93Q162.18-20.04 158.17-15.82L158.17-15.82Q157.57-15.19 157.75-14.98Z" transform="translate(-1.8262790441513062, 30.622909545898438)"></path></g> <!----> <!----> <!----> <!----> <!----> <!----> <!----></g></g> <g data-gra="path-slogan" fill-rule="" class="tp-slogan iconsvg-slogansvg" fill="#f7a900" transform="translate(-1.4027252197265625,39.66047668457031)"><!----> <!----> <g transform="scale(1, 1)"><g transform="scale(1)"><path d="M6.58-4.94L6.58-4.94L5.66-4.94Q5.32-6.35 3.71-6.39L3.71-6.39Q1.49-6.28 1.42-3.56L1.42-3.56Q1.42-0.65 3.75-0.65L3.75-0.65Q5.36-0.69 5.74-2.60L5.74-2.60L6.66-2.60Q6.24 0.04 3.56 0.11L3.56 0.11Q0.50 0 0.42-3.52L0.42-3.52Q0.57-7.04 3.71-7.19L3.71-7.19Q6.20-7.12 6.58-4.94ZM8.72-4.13L12.40-4.13L12.40-7.00L13.35-7.00L13.35 0L12.40 0L12.40-3.25L8.72-3.25L8.72 0L7.77 0L7.77-7.00L8.72-7.00L8.72-4.13ZM20.36-3.48L20.36-3.48Q20.20-6.24 17.91-6.39L17.91-6.39Q15.57-6.28 15.46-3.48L15.46-3.48Q15.57-0.77 17.91-0.65L17.91-0.65Q20.20-0.80 20.36-3.48ZM21.31-3.48L21.31-3.48Q21.08 0 17.91 0.11L17.91 0.11Q14.69 0 14.46-3.48L14.46-3.48Q14.66-7.12 17.91-7.19L17.91-7.19Q21.08-7.08 21.31-3.48ZM23.57-7.00L27.09-1.34L27.09-7.00L28.01-7.00L28.01 0L26.94 0L23.38-5.66L23.34-5.66L23.34 0L22.42 0L22.42-7.00L23.57-7.00ZM34.71-2.95L32.56-2.95L32.56-3.75L35.63-3.75L35.63 0L35.01 0L34.78-0.88Q33.98 0.08 32.49 0.11L32.49 0.11Q31.07 0.11 30.31-0.61L30.31-0.61Q29.16-1.68 29.20-3.56L29.20-3.56Q29.46-7.04 32.53-7.19L32.53-7.19Q35.13-7.04 35.51-4.90L35.51-4.90L34.59-4.90Q34.21-6.35 32.49-6.39L32.49-6.39Q30.31-6.24 30.19-3.52L30.19-3.52Q30.19-0.61 32.53-0.61L32.53-0.61Q33.37-0.61 33.98-1.07L33.98-1.07Q34.74-1.68 34.71-2.95L34.71-2.95ZM41.17-0.88L40.45-1.45L40.94-2.03L41.82-1.34Q42.63-2.14 42.63-3.48L42.63-3.48Q42.47-6.24 40.18-6.39L40.18-6.39Q37.84-6.28 37.73-3.48L37.73-3.48Q37.84-0.77 40.18-0.65L40.18-0.65Q40.75-0.65 41.17-0.88L41.17-0.88ZM42.59-0.77L43.51-0.04L43.05 0.46L41.98-0.27Q41.29 0.11 40.18 0.11L40.18 0.11Q36.96 0 36.73-3.48L36.73-3.48Q36.93-7.12 40.18-7.19L40.18-7.19Q43.35-7.08 43.58-3.48L43.58-3.48Q43.55-1.80 42.59-0.77L42.59-0.77ZM44.85-7.00L45.80-7.00L45.80 0L44.85 0L44.85-7.00ZM48.56-7.00L52.08-1.34L52.08-7.00L53.00-7.00L53.00 0L51.93 0L48.37-5.66L48.33-5.66L48.33 0L47.41 0L47.41-7.00L48.56-7.00ZM59.69-2.95L57.55-2.95L57.55-3.75L60.61-3.75L60.61 0L60.00 0L59.77-0.88Q58.97 0.08 57.47 0.11L57.47 0.11Q56.06 0.11 55.29-0.61L55.29-0.61Q54.15-1.68 54.18-3.56L54.18-3.56Q54.45-7.04 57.51-7.19L57.51-7.19Q60.11-7.04 60.50-4.90L60.50-4.90L59.58-4.90Q59.20-6.35 57.47-6.39L57.47-6.39Q55.29-6.24 55.18-3.52L55.18-3.52Q55.18-0.61 57.51-0.61L57.51-0.61Q58.35-0.61 58.97-1.07L58.97-1.07Q59.73-1.68 59.69-2.95L59.69-2.95ZM70.64-4.94L70.64-4.94L69.72-4.94Q69.38-6.35 67.77-6.39L67.77-6.39Q65.55-6.28 65.47-3.56L65.47-3.56Q65.47-0.65 67.81-0.65L67.81-0.65Q69.41-0.69 69.80-2.60L69.80-2.60L70.71-2.60Q70.29 0.04 67.61 0.11L67.61 0.11Q64.55 0 64.48-3.52L64.48-3.52Q64.63-7.04 67.77-7.19L67.77-7.19Q70.26-7.12 70.64-4.94ZM72.78-4.13L76.45-4.13L76.45-7.00L77.41-7.00L77.41 0L76.45 0L76.45-3.25L72.78-3.25L72.78 0L71.82 0L71.82-7.00L72.78-7.00L72.78-4.13ZM83.49-2.60L83.49-7.00L84.45-7.00L84.45-2.49Q84.34 0.04 81.58 0.11L81.58 0.11Q79.02 0.04 78.90-2.33L78.90-2.33L78.90-7.00L79.86-7.00L79.86-2.60Q79.90-0.69 81.62-0.65L81.62-0.65Q83.49-0.69 83.49-2.60L83.49-2.60ZM90.54 0L89.85-2.03L87.02-2.03L86.29 0L85.33 0L87.97-7.00L89.04-7.00L91.57 0L90.54 0ZM88.43-5.97L87.32-2.87L89.50-2.87L88.47-5.97L88.43-5.97ZM93.56-7.00L97.08-1.34L97.08-7.00L98.00-7.00L98.00 0L96.93 0L93.37-5.66L93.33-5.66L93.33 0L92.41 0L92.41-7.00L93.56-7.00ZM104.69-2.95L102.55-2.95L102.55-3.75L105.61-3.75L105.61 0L105.00 0L104.77-0.88Q103.97 0.08 102.47 0.11L102.47 0.11Q101.06 0.11 100.29-0.61L100.29-0.61Q99.15-1.68 99.18-3.56L99.18-3.56Q99.45-7.04 102.51-7.19L102.51-7.19Q105.11-7.04 105.50-4.90L105.50-4.90L104.58-4.90Q104.20-6.35 102.47-6.39L102.47-6.39Q100.29-6.24 100.18-3.52L100.18-3.52Q100.18-0.61 102.51-0.61L102.51-0.61Q103.35-0.61 103.97-1.07L103.97-1.07Q104.73-1.68 104.69-2.95L104.69-2.95ZM107.07-7.00L108.02-7.00L108.02-0.84L111.58-0.84L111.58 0L107.07 0L107.07-7.00ZM112.65-7.00L113.61-7.00L113.61 0L112.65 0L112.65-7.00ZM118.09-7.00L119.04-7.00L119.04 0L118.09 0L118.09-7.00ZM121.80-7.00L125.32-1.34L125.32-7.00L126.24-7.00L126.24 0L125.17 0L121.61-5.66L121.57-5.66L121.57 0L120.65 0L120.65-7.00L121.80-7.00ZM128.23-7.00L130.22-1.03L132.24-7.00L133.32-7.00L130.75 0L129.72 0L127.16-7.00L128.23-7.00ZM135.27-0.84L139.48-0.84L139.48 0L134.31 0L134.31-7.00L139.40-7.00L139.40-6.20L135.27-6.20L135.27-4.02L139.09-4.02L139.09-3.18L135.27-3.18L135.27-0.84ZM145.83-4.97L145.83-4.97L144.95-4.97Q144.87-6.31 143.19-6.39L143.19-6.39Q141.62-6.35 141.62-5.17L141.62-5.17Q141.62-4.40 142.46-4.29L142.46-4.29L144.45-3.83Q146.02-3.44 146.02-1.91L146.02-1.91Q145.98 0.04 143.27 0.11L143.27 0.11Q141.77 0.11 141.16-0.50L141.16-0.50Q140.40-1.07 140.43-2.26L140.43-2.26L141.35-2.26Q141.39-0.65 143.27-0.61L143.27-0.61Q145.10-0.65 145.14-1.80L145.14-1.80Q145.29-2.76 143.61-3.06L143.61-3.06L142.16-3.37Q140.66-3.79 140.66-5.05L140.66-5.05Q140.78-7.12 143.11-7.19L143.11-7.19Q145.75-7.19 145.83-4.97ZM149.01-6.20L146.63-6.20L146.63-7.00L152.30-7.00L152.30-6.20L149.92-6.20L149.92 0L149.01 0L149.01-6.20ZM159.87-7.00L159.87 0L158.95 0L158.95-4.13Q158.95-4.71 158.95-5.89L158.95-5.89L156.96 0L156.01 0L154.06-5.89L154.02-5.89Q154.02-5.47 154.06-4.63L154.06-4.63Q154.06-4.21 154.06-4.13L154.06-4.13L154.06 0L153.10 0L153.10-7.00L154.48-7.00L156.51-1.07L158.49-7.00L159.87-7.00ZM162.32-0.84L166.53-0.84L166.53 0L161.36 0L161.36-7.00L166.45-7.00L166.45-6.20L162.32-6.20L162.32-4.02L166.15-4.02L166.15-3.18L162.32-3.18L162.32-0.84ZM168.90-7.00L172.42-1.34L172.42-7.00L173.34-7.00L173.34 0L172.27 0L168.71-5.66L168.67-5.66L168.67 0L167.76 0L167.76-7.00L168.90-7.00ZM176.59-6.20L174.22-6.20L174.22-7.00L179.89-7.00L179.89-6.20L177.51-6.20L177.51 0L176.59 0L176.59-6.20Z" transform="translate(-0.42091836734693877, 7.1938775510204085)"></path></g></g></g></g></g><defs v-gra="od"></defs></svg>